<svg width="28" height="32" viewBox="0 0 28 32" fill="none" xmlns="http://www.w3.org/2000/svg">
<path d="M15.5663 3.31496V0.783358C15.5663 0.267363 15.0078 -0.0551341 14.5545 0.202863L8.83145 3.50039C8.37814 3.75839 8.37814 4.40338 8.83145 4.66138L14.5545 7.95085C15.0078 8.20885 15.5663 7.88635 15.5663 7.37035V5.26606C21.4756 6.03199 26.0491 11.0791 26.0491 17.1743C26.0491 23.7935 20.6418 29.1792 13.996 29.1792C7.3501 29.1792 1.94276 23.7935 1.94276 17.1743C1.94276 13.8122 3.37554 10.5792 5.86875 8.30559C6.2654 7.94279 6.28968 7.33004 5.93351 6.93498C5.56924 6.53992 4.95403 6.51574 4.55739 6.87048C1.65944 9.51496 0 13.264 0 17.1743C0 24.8658 6.28158 31.1142 13.996 31.1142C21.7103 31.1142 27.9919 24.8577 27.9919 17.1743C28 10.0148 22.5522 4.09701 15.5663 3.31496Z" fill="#909BAA"/>
<path d="M9.61679 22.3587H11.2924V12.2565H9.73012L8.2002 13.3288V15.0864L9.61679 14.0867V22.3587Z" fill="#909BAA"/>
<path d="M17.5496 20.1738C17.4444 20.3834 17.2906 20.5528 17.1044 20.6898C16.9182 20.8269 16.6592 20.8914 16.3435 20.8914C15.9954 20.8914 15.6959 20.8027 15.4449 20.6334C15.194 20.4641 15.0321 20.1577 14.9592 19.7223L13.2998 20.0126C13.3888 20.4963 13.5346 20.8914 13.7369 21.2058C13.9393 21.5202 14.1821 21.7621 14.4574 21.9475C14.7326 22.1249 15.0402 22.2539 15.3721 22.3265C15.704 22.399 16.0359 22.4394 16.3758 22.4394C16.9425 22.4394 17.4201 22.3426 17.8248 22.1491C18.2296 21.9556 18.5533 21.6815 18.8043 21.3348C19.0552 20.9881 19.2333 20.5689 19.3547 20.0932C19.4762 19.6175 19.5328 19.0935 19.5328 18.521C19.5247 18.0695 19.4681 17.6503 19.3547 17.2713C19.2495 16.8924 19.0876 16.5699 18.869 16.2958C18.6505 16.0217 18.3753 15.804 18.0434 15.6589C17.7115 15.5057 17.3148 15.4331 16.8453 15.4331C16.5701 15.4331 16.2949 15.4734 16.0035 15.546C15.7121 15.6266 15.4368 15.7798 15.1697 16.0136V13.8045H19.2495V12.2646H13.5831V17.8115H15.1535C15.3073 17.5213 15.4935 17.3036 15.7121 17.1585C15.9306 17.0134 16.1573 16.9408 16.4082 16.9408C16.6915 16.9408 16.9263 16.9972 17.1044 17.102C17.2906 17.2068 17.4363 17.3439 17.5415 17.5213C17.6467 17.6987 17.7196 17.8922 17.7601 18.1179C17.8005 18.3436 17.8167 18.5694 17.8167 18.8113C17.8167 19.037 17.8005 19.2708 17.7681 19.5127C17.7277 19.7384 17.6548 19.9642 17.5496 20.1738Z" fill="#909BAA"/>
</svg>
