<svg width="28" height="28" viewBox="0 0 28 28" fill="none" xmlns="http://www.w3.org/2000/svg">
<path d="M13.996 0C6.28158 0 0 6.28158 0 13.996C0 16.4244 0.631396 18.8043 1.82134 20.9008L1.29517 25.7011C1.26279 25.9925 1.36803 26.2839 1.5704 26.4944C1.78086 26.7048 2.07228 26.802 2.36369 26.7696L7.20439 26.2434C9.27667 27.3929 11.6161 28 13.996 28C21.7184 28 27.9919 21.7184 27.9919 14.004C27.9919 6.28968 21.7184 0 13.996 0ZM13.1541 13.405C13.1541 14.6921 13.0408 15.704 12.8222 16.4487C12.6036 17.1934 12.1827 17.8572 11.5675 18.4481C11.1709 18.8286 10.7014 19.1524 10.1671 19.4276C9.66522 19.6866 9.04192 19.4681 8.79907 18.9581C8.56432 18.4643 8.7667 17.8815 9.24429 17.6305C9.6895 17.3958 10.0214 17.1125 10.2642 16.7887C10.6123 16.3111 10.8066 15.6797 10.8552 14.8864C10.8633 14.7731 10.7661 14.6678 10.6528 14.6678H9.72998C9.17144 14.6678 8.71813 14.2145 8.71813 13.656V11.2356C8.71813 10.6771 9.17144 10.2238 9.72998 10.2238H12.1503C12.7089 10.2238 13.1622 10.6771 13.1622 11.2356V13.405H13.1541ZM19.7514 13.405C19.7514 14.6921 19.638 15.704 19.4195 16.4487C19.2009 17.1934 18.78 17.8572 18.1648 18.4481C17.7681 18.8286 17.2986 19.1524 16.7644 19.4276C16.2625 19.6866 15.6392 19.4681 15.3964 18.9581C15.1616 18.4643 15.364 17.8815 15.8416 17.6305C16.2868 17.3958 16.6187 17.1125 16.8615 16.7887C17.242 16.2706 17.4443 15.5663 17.4605 14.6678H16.3273C15.7687 14.6678 15.3154 14.2145 15.3154 13.656V11.2356C15.3154 10.6771 15.7687 10.2238 16.3273 10.2238H18.7476C19.3062 10.2238 19.7595 10.6771 19.7595 11.2356V13.405H19.7514Z" fill="#909BAA"/>
</svg>
