<svg width="22" height="22" viewBox="0 0 22 22" fill="none" xmlns="http://www.w3.org/2000/svg">
<path d="M17.6466 12.6789L18.0456 5.32194C18.0661 4.97404 17.7693 4.67731 17.4112 4.68754L10.0543 5.0866C9.53243 5.11729 9.29709 5.74146 9.66545 6.10982L10.6273 7.07164L9.62452 8.0744L14.6588 13.1086L15.6615 12.1059L16.6233 13.0677C16.9917 13.4361 17.6159 13.2007 17.6466 12.6789Z" fill="white"/>
<path d="M13.8199 13.9477L8.78564 8.91351L6.92339 10.7758L11.9576 15.81L13.8199 13.9477Z" fill="white"/>
<path d="M4.23222 13.4668L6.23773 15.4723L4.86662 16.8434C4.58012 17.1299 4.58012 17.5801 4.86662 17.8667C5.15312 18.1532 5.60334 18.1532 5.88984 17.8667L7.26095 16.4955L9.26646 18.501L11.1287 16.6388L6.09448 11.6046L4.23222 13.4668Z" fill="white"/>
</svg>
