<svg width="28" height="31" viewBox="0 0 28 31" fill="none" xmlns="http://www.w3.org/2000/svg">
<path d="M23.2807 6.74676C22.8868 6.385 22.2758 6.41716 21.9141 6.81107C21.5523 7.20497 21.5845 7.81593 21.9784 8.17768C24.4544 10.4447 25.8773 13.6602 25.8773 17.0205C25.8773 23.6204 20.5073 28.9904 13.9073 28.9904C7.30737 28.9904 1.92934 23.6124 1.92934 17.0124C1.92934 10.935 6.47132 5.91071 12.3397 5.13897V7.23713C12.3397 7.75162 12.8944 8.07317 13.3446 7.81593L19.0281 4.53606C19.4783 4.27881 19.4783 3.6357 19.0281 3.37845L13.3446 0.090538C12.8944 -0.166707 12.3397 0.154849 12.3397 0.669339V3.19356C5.41019 3.97333 0 9.87389 0 17.0124C0 24.6816 6.23819 30.9117 13.8993 30.9117C21.5604 30.9117 27.7985 24.6735 27.7985 17.0124C27.8066 13.1136 26.1506 9.37548 23.2807 6.74676Z" fill="#909BAA"/>
<path d="M10.0246 20.5575C9.68693 20.5575 9.38949 20.469 9.12421 20.2922C8.86696 20.1153 8.69814 19.834 8.61776 19.4561L6.9939 19.6893C7.08232 20.1314 7.22702 20.5092 7.43604 20.8147C7.64505 21.1202 7.88622 21.3694 8.15954 21.5543C8.43286 21.7392 8.7303 21.8758 9.0599 21.9643C9.38145 22.0527 9.71105 22.0929 10.0406 22.0929C10.523 22.0929 10.9651 22.0125 11.359 21.8598C11.7529 21.707 12.0906 21.49 12.38 21.2167C12.6613 20.9433 12.8864 20.6137 13.0392 20.2359C13.1919 19.8581 13.2723 19.432 13.2723 18.9658C13.2723 18.5799 13.1678 18.1779 12.9507 17.768C12.7337 17.3499 12.38 17.0203 11.8896 16.7711C12.3398 16.53 12.6694 16.2084 12.8703 15.8145C13.0713 15.4206 13.1758 15.0428 13.1758 14.6891C13.1758 14.3112 13.1115 13.9575 12.9909 13.6199C12.8703 13.2823 12.6854 12.9848 12.4362 12.7276C12.187 12.4703 11.8655 12.2694 11.4796 12.1166C11.0937 11.9639 10.6355 11.8835 10.105 11.8835C9.75124 11.8835 9.40557 11.9398 9.08401 12.0603C8.76246 12.1729 8.46502 12.3417 8.19169 12.5507C7.91837 12.7597 7.69328 13.025 7.50035 13.3305C7.31545 13.636 7.17879 13.9816 7.10644 14.3595L8.7303 14.6167C8.81873 14.1987 8.98755 13.9013 9.25283 13.7164C9.51007 13.5315 9.7834 13.443 10.0648 13.443C10.4506 13.443 10.7722 13.5636 11.0375 13.8128C11.3028 14.062 11.4394 14.3755 11.4394 14.7614C11.4394 15.1392 11.3108 15.4528 11.0535 15.718C10.7963 15.9753 10.4265 16.1119 9.9281 16.1119H9.18852V17.4705H9.98437C10.4667 17.4705 10.8365 17.6072 11.1098 17.8805C11.3751 18.1538 11.5118 18.5236 11.5118 18.9818C11.5118 19.4561 11.3751 19.842 11.1018 20.1314C10.8124 20.4128 10.4587 20.5575 10.0246 20.5575Z" fill="#909BAA"/>
<path d="M17.7658 11.8755C17.38 11.8755 17.0102 11.9399 16.6484 12.0685C16.2867 12.1971 15.9651 12.39 15.6918 12.6392C15.4185 12.8885 15.1934 13.1939 15.0246 13.5557C14.8558 13.9174 14.7673 14.3355 14.7673 14.8098V19.1668C14.7673 19.6331 14.8477 20.0431 15.0246 20.4129C15.1934 20.7827 15.4185 21.0881 15.6918 21.3293C15.9651 21.5785 16.2867 21.7634 16.6484 21.892C17.0102 22.0207 17.38 22.085 17.7658 22.085C18.1517 22.085 18.5295 22.0207 18.8913 21.892C19.2611 21.7634 19.5826 21.5705 19.856 21.3293C20.1293 21.0801 20.3544 20.7746 20.5232 20.4129C20.692 20.0431 20.7804 19.6331 20.7804 19.1668V14.8098C20.7804 14.3355 20.692 13.9174 20.5232 13.5557C20.3544 13.1939 20.1293 12.8885 19.856 12.6392C19.5826 12.39 19.2611 12.1971 18.8913 12.0685C18.5295 11.9399 18.1517 11.8755 17.7658 11.8755ZM19.1083 19.1186C19.1083 19.5849 18.9878 19.9386 18.7386 20.1878C18.4893 20.437 18.1678 20.5576 17.7578 20.5576C17.3478 20.5576 17.0263 20.437 16.7851 20.1878C16.5439 19.9386 16.4233 19.5849 16.4233 19.1186V14.8499C16.4233 14.3837 16.5439 14.03 16.7851 13.7808C17.0263 13.5316 17.3478 13.411 17.7578 13.411C18.1678 13.411 18.4893 13.5316 18.7386 13.7808C18.9878 14.03 19.1083 14.3837 19.1083 14.8499V19.1186Z" fill="#909BAA"/>
</svg>
